<?xml version="1.0" standalone="no"?>
<!DOCTYPE svg PUBLIC "-//W3C//DTD SVG 20010904//EN"
 "http://www.w3.org/TR/2001/REC-SVG-20010904/DTD/svg10.dtd">
<svg version="1.0" xmlns="http://www.w3.org/2000/svg"
 width="834.000000pt" height="834.000000pt" viewBox="0 0 834.000000 834.000000"
 preserveAspectRatio="xMidYMid meet">
<metadata>
Created by potrace 1.11, written by Peter Selinger 2001-2013
</metadata>
<g transform="translate(0.000000,834.000000) scale(0.100000,-0.100000)"
fill="#000000" stroke="none">
<path d="M3889 8319 c-1292 -87 -2481 -784 -3192 -1870 -355 -542 -566 -1121
-654 -1794 -26 -202 -26 -778 0 -980 114 -874 450 -1623 1014 -2265 477 -542
1085 -948 1773 -1184 496 -171 1046 -247 1563 -218 317 19 503 46 792 117
1598 392 2824 1711 3099 3335 43 253 51 367 51 705 0 338 -8 452 -51 705 -101
596 -343 1187 -688 1678 -847 1206 -2239 1871 -3707 1771z"/>
</g>
</svg>
